<?xml version="1.0" encoding="UTF-8"?>
<svg version="1.1" xmlns="http://www.w3.org/2000/svg" width="900" height="222">
<path d="M0 0 C6.51475058 0.09212871 13.0291234 0.19941507 19.54345703 0.31738281 C21.7608469 0.35573134 23.97830024 0.39057371 26.19580078 0.421875 C29.37816089 0.46739826 32.56008182 0.52541319 35.7421875 0.5859375 C36.73805878 0.59748871 37.73393005 0.60903992 38.75997925 0.62094116 C39.68078278 0.64081085 40.6015863 0.66068054 41.55029297 0.68115234 C42.76940872 0.70113785 42.76940872 0.70113785 44.01315308 0.7215271 C46 1 46 1 48 3 C48.22705078 5.24658203 48.22705078 5.24658203 48.1953125 8.0078125 C48.18886719 8.99394531 48.18242188 9.98007813 48.17578125 10.99609375 C48.15064453 12.54490234 48.15064453 12.54490234 48.125 14.125 C48.11597656 15.16527344 48.10695313 16.20554687 48.09765625 17.27734375 C48.07403747 19.85179092 48.04110149 22.42578212 48 25 C52.22082978 23.59305674 53.09459582 20.62850297 55 16.875 C55.34289062 16.22273438 55.68578125 15.57046875 56.0390625 14.8984375 C58.23389303 10.67632075 60.17407906 6.39362227 62 2 C66.26963856 1.63035979 70.54077922 1.28217294 74.8125 0.9375 C76.00810547 0.83373047 77.20371094 0.72996094 78.43554688 0.62304688 C79.61826172 0.52958984 80.80097656 0.43613281 82.01953125 0.33984375 C83.09307861 0.25081787 84.16662598 0.16179199 85.27270508 0.07006836 C88.3167079 0.01284501 91.09797395 0.1648943 94.11450195 0.47045898 C100.46666748 1.10409053 106.7689524 1.14401759 113.1484375 1.1328125 C114.36399323 1.13376923 115.57954895 1.13472595 116.8319397 1.13571167 C119.38161267 1.13638793 121.93128743 1.1345726 124.48095703 1.13037109 C128.3844791 1.12498693 132.28788758 1.13034926 136.19140625 1.13671875 C138.67708359 1.13605842 141.16276085 1.13477818 143.6484375 1.1328125 C144.81305511 1.13483673 145.97767273 1.13686096 147.17758179 1.13894653 C148.80550156 1.13421829 148.80550156 1.13421829 150.46630859 1.12939453 C151.41686127 1.12859894 152.36741394 1.12780334 153.34677124 1.12698364 C156.01977966 1.07124409 156.01977966 1.07124409 158.65835571 0.42941284 C161 0 161 0 164 1 C166.09854559 1.09570856 168.20005532 1.13073946 170.30078125 1.1328125 C171.57775879 1.13466553 172.85473633 1.13651855 174.17041016 1.13842773 C175.55110784 1.13429366 176.93180451 1.12981044 178.3125 1.125 C179.00784851 1.12444611 179.70319702 1.12389221 180.4196167 1.12332153 C190.16306183 1.1142087 199.8825387 0.93196809 209.60668945 0.26806641 C214.12447714 -0.00846722 218.44947583 0.0766594 222.95996094 0.48852539 C229.86509996 1.04504532 236.70882194 1.1115966 243.6328125 1.0625 C245.49231033 1.05682007 245.49231033 1.05682007 247.38937378 1.05102539 C251.30128669 1.03892806 255.2131215 1.02027881 259.125 1 C264.31509365 0.97312389 269.50517347 0.95347685 274.6953125 0.9375 C275.88585236 0.92920166 277.07639221 0.92090332 278.30300903 0.91235352 C279.95150345 0.90739868 279.95150345 0.90739868 281.63330078 0.90234375 C282.60002716 0.89710693 283.56675354 0.89187012 284.56277466 0.88647461 C287 1 287 1 290 2 C291.39111328 3.57543945 291.39111328 3.57543945 292.8203125 5.61328125 C293.35156738 6.36174316 293.88282227 7.11020508 294.43017578 7.88134766 C294.98946777 8.68362793 295.54875977 9.4859082 296.125 10.3125 C297.29110475 11.95222268 298.45777383 13.59154416 299.625 15.23046875 C300.75009957 16.82024204 301.87510524 18.41008178 303 20 C304.6932796 22.3863509 306.40053039 24.76111618 308.125 27.125 C308.80820312 28.07632812 309.49140625 29.02765625 310.1953125 30.0078125 C310.79085938 30.66523438 311.38640625 31.32265625 312 32 C312.99 32 313.98 32 315 32 C315.33 31.01 315.66 30.02 316 29 C317.66666667 27.33333333 319.33333333 25.66666667 321 24 C325.21069844 18.90726913 325.21069844 18.90726913 328 13 C329.33333333 11.66666667 330.66666667 10.33333333 332 9 C332.73133087 7.77211976 333.46035317 6.54286263 334.1875 5.3125 C335.65503379 3.22815536 336.44185909 2.15606215 338.93139648 1.45996094 C339.65399658 1.40614258 340.37659668 1.35232422 341.12109375 1.296875 C341.9210376 1.23540283 342.72098145 1.17393066 343.54516602 1.1105957 C347.32645839 0.94024011 351.0904061 0.89598635 354.875 0.9375 C355.68437012 0.94128662 356.49374023 0.94507324 357.32763672 0.94897461 C360.74518351 0.96512309 364.16260405 0.99334394 367.58007812 1.02050781 C370.0950463 1.03873222 372.60999459 1.0507336 375.125 1.0625 C375.88151855 1.07079834 376.63803711 1.07909668 377.41748047 1.08764648 C382.00530368 1.10837612 386.45616361 0.80667357 391.0083313 0.22952271 C393.96951361 -0.11172811 396.89597896 -0.13175515 399.875 -0.125 C400.88590698 -0.12318726 400.88590698 -0.12318726 401.91723633 -0.12133789 C406.10400446 -0.0914028 410.27563286 0.04912987 414.45703125 0.26171875 C428.57875521 0.96088197 442.56118979 0.94584231 456.6875 0.5625 C474.77283074 0.07550283 492.84554263 -0.11683542 510.9375 -0.125 C512.13982269 -0.12740692 513.34214539 -0.12981384 514.5809021 -0.1322937 C518.04224397 -0.13825698 521.50350049 -0.13681597 524.96484375 -0.1328125 C525.97468323 -0.13480148 526.98452271 -0.13679047 528.02496338 -0.13883972 C533.19304348 -0.12234403 538.2901909 0.07580094 543.44140625 0.5 C552.9461713 1.22730744 562.44614663 1.14421 571.97265625 1.1328125 C573.98742179 1.13348834 576.00218725 1.13446069 578.01695251 1.13571167 C582.22346784 1.13717782 586.42996179 1.13507074 590.63647461 1.13037109 C595.96551009 1.1247004 601.29449489 1.12794287 606.62352848 1.13394356 C610.78228622 1.13760078 614.94103244 1.13638678 619.09979057 1.13381577 C621.06131433 1.13315932 623.02283921 1.13392874 624.98436165 1.13629532 C635.07280352 1.14579277 645.10727187 0.9901186 655.18139648 0.42919922 C661.31605413 0.09073156 667.16208881 -0.0139538 673.2762146 0.7333374 C679.61218066 1.3536378 686.03266954 1.14259069 692.39453125 1.1328125 C693.95627355 1.13348774 695.51801575 1.1344596 697.07975769 1.13571167 C700.33142104 1.13717609 703.58305669 1.13507336 706.8347168 1.13037109 C710.99163144 1.12465066 715.14848183 1.12797535 719.30539417 1.13394356 C722.52164695 1.13756294 725.73788456 1.13640466 728.9541378 1.13381577 C730.48706762 1.13315154 732.01999884 1.13395717 733.55292702 1.13629532 C735.69393172 1.13884717 737.83483304 1.13494678 739.97583008 1.12939453 C741.19063553 1.12859894 742.40544098 1.12780334 743.65705872 1.12698364 C746.86433306 1.00515339 749.84105607 0.53777918 753 0 C755.00410658 -0.08708138 757.01060457 -0.12783152 759.01660156 -0.12939453 C760.18888809 -0.13250641 761.36117462 -0.13561829 762.56898499 -0.13882446 C764.46069679 -0.13584854 764.46069679 -0.13584854 766.390625 -0.1328125 C767.72501147 -0.133828 769.05939773 -0.13516738 770.39378357 -0.1368103 C773.94648761 -0.13949795 777.49914767 -0.13506771 781.05184555 -0.12857056 C783.25173829 -0.12499718 785.4516245 -0.12338148 787.65151978 -0.12231445 C806.5420857 -0.11090556 825.40582833 0.08205331 844.28515625 0.77734375 C853.52319586 1.1142092 862.75759538 1.09561108 872 1 C871.56072795 6.38911804 868.49946122 10.21490175 865.5625 14.5625 C864.56200357 16.06260412 863.56324409 17.56386847 862.56640625 19.06640625 C862.12240479 19.72584229 861.67840332 20.38527832 861.22094727 21.06469727 C858.971328 24.63053048 857.75119238 27.20806087 857.73498535 31.4758606 C857.72671219 32.36722214 857.71843903 33.25858368 857.70991516 34.17695618 C857.71089706 35.14739365 857.71187897 36.11783112 857.71289062 37.11767578 C857.70605759 38.14582901 857.69922455 39.17398224 857.69218445 40.23329163 C857.67859402 42.46658262 857.6695423 44.69990476 857.66447449 46.93323135 C857.65618439 50.47332824 857.63567523 54.01316729 857.61193848 57.55319214 C857.56368511 65.07708976 857.53079819 72.60101336 857.5 80.125 C857.46428046 88.82458345 857.42220676 97.52404205 857.36405945 106.22350693 C857.34407674 109.70095259 857.33568668 113.17830129 857.32775879 116.65579224 C857.31477569 118.80585066 857.30125383 120.95590593 857.28710938 123.10595703 C857.28809128 124.06424911 857.28907318 125.0225412 857.29008484 126.00987244 C857.18609638 137.42638753 855.24303663 148.5341786 847 157 C838.4397698 163.76534322 830.23397674 166.53023166 819.375 166.25 C818.16457031 166.24226563 818.16457031 166.24226563 816.9296875 166.234375 C812.19939053 166.17294257 807.665861 165.77555866 803 165 C803.165 166.051875 803.33 167.10375 803.5 168.1875 C804.22831835 174.06682347 804.49353252 180.09433962 804 186 C803.34 186.66 802.68 187.32 802 188 C802 187.34 802 186.68 802 186 C801.15059751 186.00092179 800.30119501 186.00184359 799.42605305 186.00279331 C778.61964121 186.02501729 757.81323146 186.04149297 737.00681019 186.05181217 C726.94439578 186.05693693 716.88198936 186.06390546 706.81958008 186.07543945 C698.0344429 186.08550445 689.24931151 186.09188108 680.46416873 186.09408849 C675.82593135 186.09537585 671.18771052 186.09833295 666.54947853 186.10573006 C647.34975259 186.13519642 628.19607828 186.02037036 609.0110321 185.21531677 C603.33769436 184.98559418 597.67709979 184.95625161 592 185 C589 185 589 185 586 184 C586.16226074 184.7005249 586.32452148 185.4010498 586.49169922 186.12280273 C587.0271926 189.15392159 587.12946784 191.95831064 587.1328125 195.03515625 C587.13410156 196.17404297 587.13539063 197.31292969 587.13671875 198.48632812 C587.13285156 199.66646484 587.12898437 200.84660156 587.125 202.0625 C587.12886719 203.24650391 587.13273438 204.43050781 587.13671875 205.65039062 C587.13542969 206.78798828 587.13414062 207.92558594 587.1328125 209.09765625 C587.13112061 210.65238647 587.13112061 210.65238647 587.12939453 212.23852539 C587.01509922 214.67775994 586.62993607 216.65984945 586 219 C546.83949346 219.04580485 507.67899042 219.08103313 468.51846243 219.10213066 C463.89235382 219.10463199 459.26624526 219.10722064 454.64013672 219.10986328 C453.25870836 219.11065021 453.25870836 219.11065021 451.84937236 219.11145304 C436.94889418 219.12014921 422.04843148 219.13591484 407.14796248 219.15430559 C391.85205765 219.17302657 376.5561609 219.18412137 361.26024508 219.18817699 C351.82631311 219.19091749 342.39242488 219.19956473 332.95850638 219.21583293 C326.4841831 219.22642695 320.00988235 219.22959516 313.53555104 219.22700275 C309.80349337 219.22572522 306.07151201 219.22764612 302.339468 219.23841095 C298.28422572 219.25002197 294.22914439 219.2459567 290.17388916 219.24050903 C288.42286577 219.24924756 288.42286577 219.24924756 286.63646817 219.25816262 C275.40990009 219.21753112 265.48133486 218.37302096 256 212 C255.0925 211.4225 254.185 210.845 253.25 210.25 C247.6689802 204.6689802 245.40805765 197.84128215 243.67578125 190.28515625 C243.14715381 187.82878566 243.14715381 187.82878566 241 186 C237.15539526 184.52606267 233.03750093 184.90159729 228.98583984 184.96240234 C228.17693047 184.97042342 227.36802109 184.9784445 226.5345993 184.98670864 C223.84329661 185.01472857 221.15214882 185.05026555 218.4609375 185.0859375 C216.56340989 185.10747384 214.66587757 185.12859945 212.76834106 185.14933777 C207.6893746 185.20629682 202.61051388 185.27004337 197.53164673 185.33519363 C193.31621041 185.38835169 189.10072883 185.43725377 184.88524246 185.48625278 C162.16739604 185.75144472 139.45429287 186.08637821 116.74121094 186.62832642 C87.50195174 187.31030391 58.24507559 187.0866343 29 187 C29 180.07 29 173.14 29 166 C25.885625 166.45375 22.77125 166.9075 19.5625 167.375 C10.05735346 168.74600644 0.54277634 169.9247278 -9 171 C-9.88966285 152.00765135 -10.0774099 133.04225541 -10.02734375 114.03125 C-10.02466114 112.88142639 -10.02197853 111.73160278 -10.01921463 110.54693604 C-9.99283141 99.73566893 -9.95347999 88.9244666 -9.90405273 78.11328125 C-9.87727545 72.1383049 -9.86024303 66.16336432 -9.84918404 60.18833923 C-9.8430021 57.93333071 -9.83303203 55.6783291 -9.81910515 53.4233551 C-9.79987977 50.29325706 -9.79299432 47.16335226 -9.78881836 44.03320312 C-9.78005676 43.11589417 -9.77129517 42.19858521 -9.76226807 41.253479 C-9.77378323 33.68904151 -11.03720569 28.01261938 -15.1875 21.5390625 C-15.80367187 20.57355469 -16.41984375 19.60804687 -17.0546875 18.61328125 C-17.69664063 17.62714844 -18.33859375 16.64101563 -19 15.625 C-19.64195313 14.61566406 -20.28390625 13.60632813 -20.9453125 12.56640625 C-23.76758888 7.55264686 -23.76758888 7.55264686 -28 4 C-28 3.34 -28 2.68 -28 2 C-24.6464024 1.80124492 -21.29212319 1.61804783 -17.9375 1.4375 C-16.99455078 1.38142578 -16.05160156 1.32535156 -15.08007812 1.26757812 C-9.87592806 0.99558422 -5.12646927 1.04012018 0 2 C0 1.34 0 0.68 0 0 Z M48 26 C48.33 27.32 48.66 28.64 49 30 C49.33 28.68 49.66 27.36 50 26 C49.34 26 48.68 26 48 26 Z " fill="#FA6316" transform="translate(28,1)"/>
<path d="M0 0 C14.19 0 28.38 0 43 0 C43 20.13 43 40.26 43 61 C43.66 61 44.32 61 45 61 C45.32871094 59.83984375 45.32871094 59.83984375 45.6640625 58.65625 C47.47540957 53.69887907 49.90807977 49.15913035 52.375 44.5 C53.16596069 42.99433472 53.16596069 42.99433472 53.97290039 41.45825195 C58.2006293 33.43928162 62.52041753 25.47112521 66.90185547 17.53515625 C67.3660791 16.69210938 67.83030273 15.8490625 68.30859375 14.98046875 C68.90885376 13.89608521 68.90885376 13.89608521 69.52124023 12.78979492 C71.75943425 8.56726842 73.86274744 4.27450511 76 0 C89.53 0 103.06 0 117 0 C115.4990851 3.75228726 114.03142799 6.85121541 112.015625 10.296875 C111.41645264 11.32675537 110.81728027 12.35663574 110.19995117 13.41772461 C109.55646729 14.51737549 108.9129834 15.61702637 108.25 16.75 C106.89574321 19.0786349 105.54246431 21.40779334 104.19140625 23.73828125 C103.67354301 24.63112572 103.67354301 24.63112572 103.1452179 25.54200745 C98.80866291 33.03479023 94.59936796 40.59823837 90.39355469 48.16503906 C89.84473633 49.15084961 89.29591797 50.13666016 88.73046875 51.15234375 C88.24989014 52.01851318 87.76931152 52.88468262 87.27416992 53.77709961 C86.25233466 55.55978022 85.13978371 57.29032443 84 59 C84.30030999 63.39954143 86.29715722 66.62492242 88.5 70.375 C89.03947266 71.29780762 89.03947266 71.29780762 89.58984375 72.23925781 C90.71882554 74.1641913 91.8584263 76.08251293 93 78 C93.6496875 79.10085937 94.299375 80.20171875 94.96875 81.3359375 C97.2902239 85.23779941 99.63996269 89.1213765 102 93 C102.64195313 94.05622559 103.28390625 95.11245117 103.9453125 96.20068359 C105.75763186 99.18023736 107.57510593 102.15660376 109.39550781 105.13122559 C110.13169924 106.33518498 110.8667264 107.53985707 111.60058594 108.74523926 C112.63643492 110.44560177 113.67748111 112.14279488 114.71875 113.83984375 C115.32654297 114.83363037 115.93433594 115.82741699 116.56054688 116.85131836 C117.03556641 117.5603833 117.51058594 118.26944824 118 119 C118.33 119 118.66 119 119 119 C122.36051231 106.2475709 125.69743765 93.4890369 129.02661133 80.72839355 C129.70617412 78.12544817 130.38625583 75.52264386 131.06713867 72.92004395 C133.19766423 64.77626422 135.32320431 56.63122568 137.43785954 48.48330879 C138.40838005 44.74442126 139.38143408 41.00623503 140.36056519 37.26959229 C141.29535504 33.70165998 142.22308902 30.1319641 143.14569855 26.56086349 C143.4901338 25.23264559 143.83706892 23.9050731 144.1866684 22.57820511 C144.66923476 20.74499 145.14184125 18.90916188 145.61401367 17.07324219 C145.88283859 16.04076355 146.15166351 15.00828491 146.42863464 13.94451904 C147.40295229 8.92339405 147.00560022 5.02800108 146 0 C165.8 0 185.6 0 206 0 C207.7451946 4.65385228 209.44857868 9.22566011 210.98608398 13.93652344 C211.34793289 15.04217148 211.7097818 16.14781952 212.08259583 17.28697205 C212.46655014 18.46586502 212.85050446 19.644758 213.24609375 20.859375 C213.87048092 22.76862868 214.49486966 24.67788185 215.11933041 26.58711147 C215.77705236 28.59902038 216.43397111 30.61118984 217.09063721 32.6234436 C219.34455253 39.53009822 221.60346146 46.43511913 223.86328125 53.33984375 C224.08609016 54.0207929 224.30889908 54.70174206 224.53845978 55.40332603 C227.30675658 63.8618664 230.0916151 72.31454845 232.91796875 80.75390625 C233.20085251 81.59877594 233.48373627 82.44364563 233.77519226 83.31411743 C235.03575671 87.07473913 236.30101724 90.83371495 237.57202148 94.59082031 C239.62466547 100.68150961 241.58453996 106.72585411 243 113 C239.37166607 114.20944464 235.83596413 114.44880981 232.05078125 114.75390625 C231.27816452 114.81907944 230.50554779 114.88425262 229.70951843 114.95140076 C227.24412097 115.15856562 224.77833325 115.36059505 222.3125 115.5625 C220.63994569 115.70213571 218.96741924 115.84210565 217.29492188 115.98242188 C213.19692775 116.32549227 209.0985762 116.66395785 205 117 C203.99093539 113.75274421 202.99434878 110.50178926 202 107.25 C201.71382812 106.32960938 201.42765625 105.40921875 201.1328125 104.4609375 C200.86210937 103.57148437 200.59140625 102.68203125 200.3125 101.765625 C199.93544922 100.54020996 199.93544922 100.54020996 199.55078125 99.29003906 C199 97 199 97 199 93 C198.27522461 93.06058594 197.55044922 93.12117188 196.80371094 93.18359375 C193.45287079 93.46078702 190.10146139 93.73042593 186.75 94 C185.61046875 94.09539062 184.4709375 94.19078125 183.296875 94.2890625 C175.84607859 94.88173949 168.47345704 95.12268329 161 95 C160.85304687 96.05574219 160.85304687 96.05574219 160.703125 97.1328125 C159.80886368 103.03802085 158.59964587 108.6938936 156.921875 114.4296875 C156.5619043 115.66702637 156.20193359 116.90436523 155.83105469 118.17919922 C155.55680664 119.11006348 155.28255859 120.04092773 155 121 C154.22962402 121.08975098 153.45924805 121.17950195 152.66552734 121.27197266 C134.14612559 123.45280263 115.73205958 126.04016429 97.33154297 129.06884766 C96.15284386 129.260923 96.15284386 129.260923 94.95033264 129.45687866 C93.48053066 129.6967759 92.01127425 129.94005107 90.54270935 130.18740845 C83.25654336 131.37565565 83.25654336 131.37565565 80 131 C78.24411863 128.70777669 76.96642307 126.6521734 75.625 124.125 C74.75438401 122.56613933 73.88325607 121.00756451 73.01171875 119.44921875 C72.53653809 118.58474121 72.06135742 117.72026367 71.57177734 116.82958984 C69.23596736 112.62455137 66.81232251 108.47157498 64.39672852 104.31201172 C59.05039967 95.10366812 53.73717051 85.87700714 48.61303711 76.54272461 C47.235637 74.05761789 46.02132528 72.02132528 44 70 C44 91.78 44 113.56 44 136 C31.79 137.98 19.58 139.96 7 142 C6.98598145 136.3077417 6.98598145 136.3077417 6.97167969 130.50048828 C6.93787814 117.94752037 6.88251116 105.39472474 6.81609726 92.84189034 C6.77636384 85.23280632 6.74394255 77.62382487 6.72900391 70.01464844 C6.71595769 63.37900449 6.68891785 56.74358676 6.64538693 50.10807025 C6.62283832 46.59770793 6.60708531 43.08762393 6.60811615 39.57718277 C6.60900654 35.64904275 6.57864129 31.7214673 6.54589844 27.79345703 C6.5509288 26.641866 6.55595917 25.49027496 6.56114197 24.30378723 C6.46746945 17.01655362 5.09942708 11.56381256 2 5 C1.34 3.35 0.68 1.7 0 0 Z " fill="#FEFDFD" transform="translate(24,11)"/>
<path d="M0 0 C5.97707067 -0.24828067 11.95110833 -0.42913837 17.93212891 -0.54931641 C19.96358545 -0.59943192 21.99468435 -0.66754905 24.02490234 -0.75439453 C40.86369902 -1.45635516 40.86369902 -1.45635516 45.99536133 2.04199219 C48.05484488 4.59905776 49.53921903 7.06690124 51 10 C51.81343283 11.15259193 52.64769654 12.29107882 53.51171875 13.40625 C54.22972656 14.4271875 54.94773437 15.448125 55.6875 16.5 C56.52446665 17.67988116 57.36172258 18.85955715 58.19921875 20.0390625 C59.69533984 22.15334793 61.18960542 24.26891497 62.68212891 26.38574219 C64.44864028 28.88655857 66.22378702 31.38106804 68 33.875 C68.84630981 35.0805957 68.84630981 35.0805957 69.7097168 36.31054688 C70.23863525 37.05111328 70.76755371 37.79167969 71.3125 38.5546875 C71.78300781 39.21968262 72.25351562 39.88467773 72.73828125 40.56982422 C73.15464844 41.04178223 73.57101562 41.51374023 74 42 C74.66 42 75.32 42 76 42 C77.58762128 39.99104846 79.05246557 37.98211433 80.5 35.875 C81.40607523 34.58060681 82.31233013 33.28633938 83.21875 31.9921875 C83.68152344 31.32670898 84.14429688 30.66123047 84.62109375 29.97558594 C86.72211864 26.96540651 88.86184913 23.9839384 91 21 C92.65 18.69 94.3 16.38 96 14 C99.3 9.38 102.6 4.76 106 0 C117.55 0 129.1 0 141 0 C141 35.64 141 71.28 141 108 C129.45 108 117.9 108 106 108 C105.67 89.52 105.34 71.04 105 52 C101.04 57.61 97.08 63.22 93 69 C89.4140625 74.0625 89.4140625 74.0625 87.98193359 76.08422852 C87.31025146 77.0325354 87.31025146 77.0325354 86.625 78 C85.8817749 79.04788696 85.8817749 79.04788696 85.12353516 80.11694336 C81.991633 84.54770319 78.9585517 89.02401864 76.0859375 93.62890625 C75.72757812 94.08136719 75.36921875 94.53382812 75 95 C74.34 95 73.68 95 73 95 C71.47396636 93.07465938 70.07403143 91.14836538 68.6875 89.125 C67.78856122 87.83798196 66.88877922 86.55155259 65.98828125 85.265625 C65.50697754 84.57533203 65.02567383 83.88503906 64.52978516 83.17382812 C61.35093565 78.65667587 58.07873306 74.20563625 54.8190918 69.74658203 C50.35772167 63.60030653 46.22501442 57.33752162 42 51 C42 70.47 42 89.94 42 110 C15 112 15 112 7 112 C7.00119339 110.16075958 7.00119339 110.16075958 7.00241089 108.28436279 C7.00602354 96.69158181 6.97806581 85.09924267 6.9197216 73.50660324 C6.89073115 67.54759087 6.87260914 61.58897002 6.87988281 55.62988281 C6.88650192 49.87185388 6.86384351 44.11459684 6.82144547 38.3567276 C6.81036026 36.16729736 6.80957235 33.97778841 6.81957626 31.78835297 C6.98778006 14.98227478 6.98778006 14.98227478 0 0 Z " fill="#FEFEFE" transform="translate(267,11)"/>
<path d="M0 0 C12.54 0 25.08 0 38 0 C37.98952637 2.96758301 37.97905273 5.93516602 37.96826172 8.99267578 C37.9351166 18.79947542 37.91302813 28.60627754 37.89637566 38.41311836 C37.88594016 44.35877573 37.87178509 50.30437568 37.84912109 56.25 C37.82738458 61.98824503 37.81542961 67.72643484 37.81024551 73.46471786 C37.80655123 75.65356185 37.79933726 77.84240283 37.78853989 80.0312233 C37.77401439 83.09786755 37.77202252 86.16428389 37.77294922 89.23095703 C37.76575867 90.13510849 37.75856812 91.03925995 37.75115967 91.97080994 C37.76659036 96.69234825 38.0549133 100.60164981 40 105 C43.10960243 107.37124934 46.82201005 107.59376194 50.625 108.125 C51.77226563 108.29257813 52.91953125 108.46015625 54.1015625 108.6328125 C58.71557025 109.0673984 63.36557097 109 68 109 C68.33 73.03 68.66 37.06 69 0 C81.54 0 94.08 0 107 0 C107.06782347 15.75139248 107.1230436 31.50266851 107.15543652 47.2541647 C107.17087951 54.56850362 107.19191963 61.88274511 107.22631836 69.19702148 C107.25629967 75.57507602 107.27559365 81.95305996 107.28226548 88.33118302 C107.28616304 91.70571993 107.29526855 95.08005495 107.31719017 98.4545269 C107.33902196 102.22948976 107.34196443 106.00403672 107.34057617 109.77905273 C107.351362 110.88748535 107.36214783 111.99591797 107.3732605 113.13793945 C107.34432179 120.4280564 106.82482136 127.4601088 102.1328125 133.33984375 C94.47706326 139.43167535 89.01245779 140.71762809 79.21234131 139.71472168 C76.08133553 139.30586538 72.95889001 138.85703079 69.8359375 138.390625 C68.11052231 138.1385025 68.11052231 138.1385025 66.35025024 137.88128662 C63.9242592 137.52472442 61.49875748 137.16481863 59.07373047 136.80175781 C55.40877934 136.25503903 51.74173376 135.72452265 48.07421875 135.1953125 C13.23685705 130.08547703 13.23685705 130.08547703 5.390625 122.4296875 C-0.3168164 114.65036669 -0.29652245 105.36175518 -0.22705078 96.04248047 C-0.22734283 94.99738815 -0.22763489 93.95229584 -0.22793579 92.87553406 C-0.22655374 89.45599773 -0.21104579 86.03668528 -0.1953125 82.6171875 C-0.19157837 80.23251464 -0.18873329 77.84784023 -0.18673706 75.46316528 C-0.17913211 69.2128062 -0.15951073 62.96254132 -0.1373291 56.71221924 C-0.11680287 50.32378412 -0.10772089 43.93533365 -0.09765625 37.546875 C-0.07626174 25.03120213 -0.04110533 12.51562367 0 0 Z " fill="#FEFEFE" transform="translate(763,11)"/>
<path d="M0 0 C14.19 0 28.38 0 43 0 C43 15.84 43 31.68 43 48 C51.04720069 48.2887241 51.04720069 48.2887241 59.09472656 48.56811523 C60.09987305 48.60622314 61.10501953 48.64433105 62.140625 48.68359375 C63.16704102 48.72025146 64.19345703 48.75690918 65.25097656 48.79467773 C68 49 68 49 72 50 C72 33.5 72 17 72 0 C84.21 0 96.42 0 109 0 C109 41.91 109 83.82 109 127 C96.79 125.35 84.58 123.7 72 122 C72 105.17 72 88.34 72 71 C67.05 71 62.1 71 57 71 C52.71 70.67 48.42 70.34 44 70 C43.67 86.17 43.34 102.34 43 119 C37.080625 118.360625 31.16125 117.72125 25.0625 117.0625 C22.25697632 116.76291382 22.25697632 116.76291382 19.39477539 116.45727539 C17.92069756 116.29608388 16.44665528 116.13456676 14.97265625 115.97265625 C14.20046753 115.89140503 13.42827881 115.81015381 12.63269043 115.72644043 C7.1140718 115.1140718 7.1140718 115.1140718 6 114 C5.90119204 110.85111961 5.86702867 107.72352556 5.87402344 104.57421875 C5.8721553 103.58391159 5.87028717 102.59360443 5.86836243 101.57328796 C5.86434705 99.41358705 5.86228255 97.25388186 5.86190033 95.09417725 C5.85849491 90.5002614 5.83713935 85.90648837 5.81666946 81.31262207 C5.7786162 72.75185372 5.74737971 64.19123355 5.74951172 55.63037109 C5.75030013 49.68326472 5.72687262 43.73667485 5.6876297 37.78970337 C5.67718187 35.52522098 5.67563664 33.26067889 5.68328094 30.9961853 C5.69293628 27.81720524 5.67165301 24.63977766 5.64355469 21.4609375 C5.65375137 20.53173996 5.66394806 19.60254242 5.67445374 18.64518738 C5.58049859 12.6885539 4.283223 8.82705576 1.07112503 3.79629517 C0 2 0 2 0 0 Z " fill="#FEFEFE" transform="translate(638,11)"/>
<path d="M0 0 C19.8 0 39.6 0 60 0 C63.37007299 8.98686131 63.37007299 8.98686131 64.62109375 13.6484375 C65.05518555 15.24751953 65.05518555 15.24751953 65.49804688 16.87890625 C65.80806641 18.03261719 66.11808594 19.18632812 66.4375 20.375 C67.14272228 22.96665817 67.84927239 25.55790283 68.55859375 28.1484375 C68.8432399 29.18855988 68.8432399 29.18855988 69.13363647 30.24969482 C71.68015321 39.52119986 74.34738773 48.75842986 77 58 C80.63431293 70.6736004 84.2422172 83.35323548 87.75 96.0625 C88.08515625 97.27486328 88.4203125 98.48722656 88.765625 99.73632812 C91 107.86964574 91 107.86964574 91 109 C79.27213875 109.11472908 67.69899806 108.85864206 56 108 C54.02 101.4 52.04 94.8 50 88 C38.12 87.67 26.24 87.34 14 87 C13.34 90.63 12.68 94.26 12 98 C11.01 101.3 10.02 104.6 9 108 C-2.55 108 -14.1 108 -26 108 C-21.40125494 89.60501978 -21.40125494 89.60501978 -19.37109375 82.40234375 C-19.13988831 81.57569214 -18.90868286 80.74904053 -18.67047119 79.89733887 C-18.17996903 78.14474524 -17.68851502 76.39241774 -17.19613647 74.64035034 C-16.41783904 71.86745244 -15.64464165 69.09316977 -14.87231445 66.31860352 C-12.47762503 57.73131444 -10.05955267 49.15282421 -7.53807068 40.60179138 C-6.49384127 37.05891337 -5.46167466 33.51256407 -4.42971802 29.96609497 C-3.93999173 28.29769109 -3.44376447 26.6311799 -2.94064331 24.96676636 C-2.2398125 22.64764117 -1.56131325 20.32296334 -0.88671875 17.99609375 C-0.57519867 16.9986615 -0.57519867 16.9986615 -0.25738525 15.9810791 C1.45238443 9.942302 0.694721 6.94720999 0 0 Z " fill="#FEFEFD" transform="translate(442,11)"/>
<path d="M0 0 C31.02 0 62.04 0 94 0 C94 7.92 94 15.84 94 24 C77.62105033 24.1068967 61.35439344 23.93453677 45 23 C45 29.93 45 36.86 45 44 C58.53 44 72.06 44 86 44 C86 51.26 86 58.52 86 66 C76.71395773 66.0520591 67.46603939 65.860805 58.1875 65.5 C56.91068359 65.45230469 55.63386719 65.40460938 54.31835938 65.35546875 C51.21215822 65.23913163 48.1060666 65.11987576 45 65 C45 72.26 45 79.52 45 87 C49.24168812 87.84833762 52.85145906 88.17758324 57.14453125 88.28125 C57.83197922 88.29965942 58.51942719 88.31806885 59.22770691 88.33703613 C61.42255573 88.39543277 63.6174857 88.44822737 65.8125 88.5 C76.89645625 88.76859547 87.93866238 89.23155365 99 90 C96.95903657 97.77753779 94.60031632 105.39155477 92 113 C82.89083271 113.08491501 73.83518057 112.83884955 64.73828125 112.37890625 C62.77050972 112.28258156 62.77050972 112.28258156 60.76298523 112.18431091 C58.01074895 112.04930231 55.25863418 111.91209687 52.5065918 111.77319336 C49.00724561 111.59670601 45.50767075 111.42535081 42.00799274 111.25558567 C38.62629356 111.09092909 35.24479793 110.92226989 31.86328125 110.75390625 C30.62137527 110.6934462 29.3794693 110.63298615 28.09992981 110.57069397 C26.92137924 110.51070724 25.74282867 110.45072052 24.52856445 110.38891602 C23.50632278 110.33784195 22.48408112 110.28676788 21.43086243 110.23414612 C16.94249791 109.92782864 12.47395088 109.4685978 8 109 C8.00452431 107.18835106 8.00452431 107.18835106 8.00914001 105.34010315 C8.03305202 93.93768414 8.02014705 82.53581669 7.97153378 71.13346958 C7.94771708 65.27182488 7.9367076 59.41074798 7.95532227 53.54907227 C7.972822 47.88824478 7.95621558 42.22843558 7.91632271 36.56773186 C7.90705463 34.41209607 7.90991336 32.25637171 7.92530632 30.10077095 C8.53818714 16.90324564 8.53818714 16.90324564 3.44360352 5.23022461 C2.30369829 4.14505688 1.15826223 3.06555222 0 2 C0 1.34 0 0.68 0 0 Z " fill="#FEFDFD" transform="translate(533,11)"/>
<path d="M0 0 C4.12550869 -0.17445227 8.24955996 -0.30070887 12.37792969 -0.38452148 C13.77870116 -0.41949242 15.17922142 -0.46709032 16.57910156 -0.52807617 C29.6953188 -1.0847202 29.6953188 -1.0847202 34.75390625 3.2890625 C35.87669499 4.48916855 36.96096847 5.72668835 38 7 C38.89900024 7.99688843 38.89900024 7.99688843 39.81616211 9.01391602 C40.9385225 10.25897384 42.04031789 11.5227646 43.125 12.80078125 C45.34969104 15.41015844 47.63988509 17.95467348 49.9375 20.5 C50.70964844 21.3559375 51.48179687 22.211875 52.27734375 23.09375 C52.84582031 23.7228125 53.41429687 24.351875 54 25 C56.97917979 22.69239803 59.68271695 20.43314159 62.125 17.5625 C62.74632812 16.88316406 63.36765625 16.20382813 64.0078125 15.50390625 C66.15091714 12.96815404 66.15091714 12.96815404 67.8046875 9.58984375 C70.23614834 5.38563315 72.51391365 2.12498827 77 0 C87.06377151 -1.70757134 97.8901474 -1.1611351 108 0 C109 1 109 1 109.12025452 3.47401428 C109.11803391 4.57321701 109.11581329 5.67241974 109.11352539 6.80493164 C109.11341209 8.66674828 109.11341209 8.66674828 109.11329651 10.56617737 C109.10818911 11.9308374 109.1029731 13.29549702 109.09765625 14.66015625 C109.095792 16.04878183 109.09436813 17.43740807 109.09336853 18.82603455 C109.08954387 22.48721115 109.07971403 26.1483483 109.06866455 29.80950928 C109.05844932 33.54292263 109.05387067 37.27634234 109.04882812 41.00976562 C109.0380917 48.33986385 109.02049534 55.66992138 109 63 C100.75 63 92.5 63 84 63 C83.67 50.46 83.34 37.92 83 25 C72.85234469 35.86736486 72.85234469 35.86736486 63 47 C61.68860343 48.50096479 60.37610897 50.00097107 59.0625 51.5 C58.47597656 52.1703125 57.88945313 52.840625 57.28515625 53.53125 C56.86105469 54.0159375 56.43695312 54.500625 56 55 C51.66999467 53.42359144 49.26782441 50.07257356 46.4375 46.625 C45.37928368 45.36317292 44.31934889 44.10278528 43.2578125 42.84375 C42.4519873 41.88662109 42.4519873 41.88662109 41.62988281 40.91015625 C39.08409902 37.92660137 36.46018884 35.01811448 33.8125 32.125 C33.34320068 31.60760254 32.87390137 31.09020508 32.39038086 30.55712891 C31.28227946 29.3508099 30.14421387 28.17212153 29 27 C28.67 27 28.34 27 28 27 C27.67 38.55 27.34 50.1 27 62 C22.730625 62.020625 18.46125 62.04125 14.0625 62.0625 C12.04008179 62.07615601 12.04008179 62.07615601 9.97680664 62.09008789 C8.3969397 62.09383423 8.3969397 62.09383423 6.78515625 62.09765625 C5.15912476 62.10551147 5.15912476 62.10551147 3.50024414 62.11352539 C1 62 1 62 0 61 C-0.09391296 59.09756238 -0.11743658 57.19161541 -0.11352539 55.28686523 C-0.11344986 54.0656749 -0.11337433 52.84448456 -0.11329651 51.58628845 C-0.10818911 50.24372314 -0.10297311 48.90115825 -0.09765625 47.55859375 C-0.09579199 46.19238842 -0.09436813 44.82618243 -0.09336853 43.4599762 C-0.08954394 39.85798305 -0.07971417 36.25603 -0.06866455 32.65405273 C-0.05844916 28.98096255 -0.05387064 25.30786591 -0.04882812 21.63476562 C-0.03809184 14.42315877 -0.02101614 7.211585 0 0 Z " fill="#FEFDFD" transform="translate(488,144)"/>
<path d="M0 0 C1.39960776 0.00560664 2.79922148 0.00987168 4.19883728 0.01286316 C7.85347213 0.02422814 11.50773997 0.05362133 15.16223145 0.0869751 C18.9030257 0.1178579 22.64388019 0.1314071 26.38476562 0.14648438 C33.70329094 0.17850079 41.0215156 0.22959354 48.33984375 0.29296875 C48.39373462 2.25100382 48.43258592 4.20945784 48.46484375 6.16796875 C48.48804688 7.25851563 48.51125 8.3490625 48.53515625 9.47265625 C48.33984375 12.29296875 48.33984375 12.29296875 46.33984375 14.29296875 C44.39096069 14.57144165 44.39096069 14.57144165 41.98193359 14.61181641 C40.63075943 14.64162094 40.63075943 14.64162094 39.25228882 14.67202759 C38.27829132 14.6835788 37.30429382 14.69513 36.30078125 14.70703125 C34.80679306 14.73608047 34.80679306 14.73608047 33.28262329 14.76571655 C30.09345125 14.8256184 26.90424332 14.87194013 23.71484375 14.91796875 C21.55597362 14.95613876 19.39711887 14.99518991 17.23828125 15.03515625 C11.93893841 15.13132845 6.63950332 15.21634464 1.33984375 15.29296875 C1.31518983 19.8319458 1.29700586 24.37088418 1.28491211 28.90991211 C1.27987235 30.45516641 1.27304055 32.00041591 1.2644043 33.5456543 C1.25232299 35.76221904 1.24661202 37.97872093 1.2421875 40.1953125 C1.23702621 40.89011215 1.23186493 41.5849118 1.22654724 42.30076599 C1.22635098 43.96526205 1.27795246 45.62962374 1.33984375 47.29296875 C3.17204021 49.12516521 6.09698116 48.53198203 8.5625 48.609375 C10.45258789 48.6722168 10.45258789 48.6722168 12.38085938 48.73632812 C13.72135111 48.77614471 15.06184595 48.81585689 16.40234375 48.85546875 C17.74675898 48.89864917 19.09116035 48.94226331 20.43554688 48.98632812 C23.73686715 49.09282233 27.03826611 49.19483335 30.33984375 49.29296875 C30.00984375 45.99296875 29.67984375 42.69296875 29.33984375 39.29296875 C28.53160156 39.25558594 27.72335937 39.21820313 26.890625 39.1796875 C25.28767578 39.08107422 25.28767578 39.08107422 23.65234375 38.98046875 C22.06873047 38.89345703 22.06873047 38.89345703 20.453125 38.8046875 C17.02870923 38.2418287 15.0536508 37.44732914 12.33984375 35.29296875 C11.32084683 32.53631391 11.4363336 30.28415402 11.33984375 27.29296875 C12.33984375 26.29296875 12.33984375 26.29296875 14.16847229 26.17271423 C14.96567184 26.17493484 15.7628714 26.17715546 16.58422852 26.17944336 C17.48508682 26.17951889 18.38594513 26.17959442 19.31410217 26.17967224 C20.29326096 26.18483353 21.27241974 26.18999481 22.28125 26.1953125 C23.27865707 26.19672745 24.27606415 26.1981424 25.30369568 26.19960022 C28.50327499 26.20521761 31.70278544 26.21777304 34.90234375 26.23046875 C37.0657542 26.23548151 39.22916574 26.2400448 41.39257812 26.24414062 C46.708357 26.25519268 52.02409546 26.27194771 57.33984375 26.29296875 C57.42749444 30.313663 57.48045393 34.33410885 57.52734375 38.35546875 C57.55248047 39.48919922 57.57761719 40.62292969 57.60351562 41.79101562 C57.65854607 48.0828296 57.50864328 52.78926431 54.33984375 58.29296875 C49.55067521 63.08213729 44.24158019 64.53113133 37.58496094 64.58349609 C36.47650818 64.5962558 35.36805542 64.6090155 34.22601318 64.62216187 C33.04154602 64.62438751 31.85707886 64.62661316 30.63671875 64.62890625 C29.40375061 64.63556305 28.17078247 64.64221985 26.90045166 64.64907837 C24.29481494 64.65918955 21.68915241 64.66389587 19.08349609 64.66357422 C15.1177244 64.66793807 11.15307429 64.70425121 7.1875 64.7421875 C4.64974337 64.74805795 2.11198148 64.75202581 -0.42578125 64.75390625 C-1.60215149 64.76827728 -2.77852173 64.78264832 -3.99053955 64.79745483 C-11.17105262 64.75804258 -17.36563584 63.9684568 -23.66015625 60.29296875 C-27.46581755 55.83756039 -28.74764439 51.91778362 -28.85302734 46.17041016 C-28.86909027 45.3692276 -28.8851532 44.56804504 -28.90170288 43.74258423 C-28.94646063 40.09630526 -28.98719064 36.45020051 -29.01025391 32.80371094 C-29.02682563 30.88334037 -29.05413173 28.96303178 -29.09228516 27.04296875 C-29.14715834 24.26399989 -29.16894019 21.48646944 -29.18359375 18.70703125 C-29.20626312 17.85372223 -29.2289325 17.00041321 -29.25228882 16.12124634 C-29.23725248 11.86107489 -28.87196004 9.65857306 -26.68994141 5.89208984 C-18.89687104 -0.79324675 -9.81669119 -0.11648503 0 0 Z " fill="#FEFEFE" transform="translate(318.66015625,142.70703125)"/>
<path d="M0 0 C4.6952493 -0.24885128 9.38660166 -0.42936152 14.08691406 -0.54931641 C15.68199553 -0.59934425 17.27662433 -0.66739914 18.87011719 -0.75439453 C32.05909957 -1.45593615 32.05909957 -1.45593615 36.72509766 2.04418945 C38.78783444 4.59653179 40.41470327 7.13101004 42 10 C42.80893654 11.17328977 43.62739112 12.34015792 44.4609375 13.49609375 C45.09257812 14.46675781 45.72421875 15.43742188 46.375 16.4375 C47.02210938 17.42621094 47.66921875 18.41492188 48.3359375 19.43359375 C48.88507813 20.28050781 49.43421875 21.12742188 50 22 C50.66 22.99 51.32 23.98 52 25 C52.66 25 53.32 25 54 25 C55.28903417 23.22502316 55.28903417 23.22502316 56.5625 20.875 C57.12453125 19.9778125 57.6865625 19.080625 58.265625 18.15625 C60.13299228 14.98959844 60.13299228 14.98959844 61.234375 11.21875 C62.93784708 6.6997537 64.5698724 3.28687385 69 1 C79.83272882 -0.84325015 91.09825211 0.1609075 102 1 C98.36404735 5.9380061 94.62870807 10.7309315 90.625 15.375 C86.64527289 20.03442297 82.72146757 24.72038696 78.98828125 29.58203125 C77 32 77 32 74.54296875 34.32421875 C67.5175163 41.37179861 67.03069761 47.55037919 66.89672852 57.09106445 C66.90151878 59.39601395 66.93294664 61.69612357 67 64 C63.03069011 64.02465881 59.06140966 64.04284023 55.09204102 64.05493164 C53.74079614 64.05997057 52.38955674 64.06680177 51.03833008 64.07543945 C49.09979566 64.08752419 47.161222 64.09269828 45.22265625 64.09765625 C43.47094116 64.10551147 43.47094116 64.10551147 41.68383789 64.11352539 C39 64 39 64 38 63 C38.03821699 60.95539077 38.07671678 58.91078641 38.11669922 56.86621094 C38.15347759 45.5514535 35.19690185 39.35972948 27.35546875 31.35107422 C26.90816406 30.90521973 26.46085937 30.45936523 26 30 C25.3503125 29.33097656 24.700625 28.66195312 24.03125 27.97265625 C22.94585615 26.88470251 21.84589661 25.81104572 20.73046875 24.75390625 C17.71065184 21.69318888 15.11230288 18.27880634 12.421875 14.9296875 C9.05112781 10.85217074 5.47431852 6.98914593 1.87109375 3.1171875 C0 1 0 1 0 0 Z " fill="#FEFDFD" transform="translate(378,143)"/>
<path d="M0 0 C1.8125 2.375 1.8125 2.375 2.4375 5.375 C1.8125 8.375 1.8125 8.375 -0.25 10.6875 C-6.84636549 14.47690145 -15.54027339 13.70783449 -22.9609375 14.0234375 C-24.24056366 14.08049866 -25.52018982 14.13755981 -26.83859253 14.1963501 C-30.34644447 14.35253177 -33.85447676 14.5042469 -37.36256409 14.65503693 C-40.31595282 14.78252376 -43.26922564 14.91259367 -46.22250366 15.04261589 C-72.68036709 16.20669849 -99.14136299 17.29876251 -125.60302734 18.37255859 C-126.33753679 18.40236502 -127.07204624 18.43217144 -127.82881355 18.46288109 C-133.77164687 18.70400286 -133.77164687 18.70400286 -136.42752457 18.81167221 C-148.6819142 19.30883785 -160.93506105 19.83193406 -173.1875 20.375 C-170.75261155 17.94011155 -169.6063577 17.92379657 -166.24609375 17.41699219 C-164.68360649 17.17565552 -164.68360649 17.17565552 -163.08955383 16.92944336 C-161.94625107 16.7619458 -160.8029483 16.59444824 -159.625 16.421875 C-158.43218918 16.24116455 -157.23937836 16.0604541 -156.01042175 15.87426758 C-152.75097555 15.3837035 -149.49054627 14.90137758 -146.22912216 14.42424011 C-144.18397744 14.1244837 -142.13925989 13.8219572 -140.09463501 13.51867676 C-114.87820351 9.78325471 -89.61728225 6.53673402 -64.28137207 3.71936035 C-61.06979053 3.36189846 -57.85861504 3.0009285 -54.64746094 2.63964844 C-49.21763901 2.03040587 -43.78686402 1.43047827 -38.35513306 0.83850098 C-36.315896 0.6161969 -34.27680739 0.39252592 -32.23788452 0.1673584 C-5.44566235 -2.77622002 -5.44566235 -2.77622002 0 0 Z " fill="#FEFCFC" transform="translate(249.1875,160.625)"/>
<path d="M0 0 C1.1381868 0.11412735 2.2763736 0.2282547 3.4490509 0.34584045 C7.1712406 0.72202079 10.89228758 1.10827238 14.61328125 1.49609375 C15.89734863 1.62820251 17.18141602 1.76031128 18.50439453 1.89642334 C38.16853347 3.92308187 57.804164 6.15207665 77.42578125 8.55859375 C78.57033783 8.69830597 79.71489441 8.83801819 80.89413452 8.98196411 C94.58766811 10.66132827 108.24491224 12.51496451 121.88366699 14.59512329 C127.88971611 15.50766521 133.8826143 16.31010497 139.92578125 16.93359375 C139.92578125 17.26359375 139.92578125 17.59359375 139.92578125 17.93359375 C125.7094341 18.03463976 111.51859731 17.71597727 97.30859375 17.3125 C94.95759584 17.2474504 92.6065927 17.18258925 90.25558472 17.11790466 C85.34905673 16.98239534 80.44257832 16.84524986 75.53613281 16.70678711 C69.33269904 16.53176321 63.12918319 16.35988877 56.92563248 16.18906593 C14.44984056 15.01863517 14.44984056 15.01863517 -3.95703125 14.3984375 C-5.00599579 14.36512833 -6.05496033 14.33181915 -7.13571167 14.29750061 C-24.96021993 13.66190518 -24.96021993 13.66190518 -29.07421875 9.93359375 C-30.13671875 6.99609375 -30.13671875 6.99609375 -30.07421875 3.93359375 C-23.29255646 -4.71887194 -9.71328445 -1.01067906 0 0 Z " fill="#FEFCFC" transform="translate(671.07421875,161.06640625)"/>
<path d="M0 0 C2.13574274 3.20361411 2.84045933 5.65097682 3.8046875 9.36328125 C4.05256516 10.30593086 4.05256516 10.30593086 4.30545044 11.2676239 C4.8339549 13.28123555 5.35481549 15.29672464 5.875 17.3125 C6.55751992 19.93421753 7.24342649 22.55504093 7.9296875 25.17578125 C8.09797058 25.82233673 8.26625366 26.46889221 8.43963623 27.13504028 C9.93770138 32.85603639 11.58395005 38.52741914 13.27001953 44.19604492 C14 47 14 47 14 50 C11.01632274 50.99455909 8.7995808 51.19559632 5.67578125 51.31640625 C4.64775391 51.35830078 3.61972656 51.40019531 2.56054688 51.44335938 C1.48869141 51.48267578 0.41683594 51.52199219 -0.6875 51.5625 C-1.77095703 51.60568359 -2.85441406 51.64886719 -3.97070312 51.69335938 C-6.64700791 51.79946838 -9.32340526 51.90152361 -12 52 C-11.39595326 45.49008328 -10.28741001 39.31821804 -8.75 32.96875 C-8.53182617 32.05162231 -8.31365234 31.13449463 -8.08886719 30.1895752 C-7.6308548 28.26964166 -7.17020889 26.35033461 -6.70703125 24.43164062 C-5.99567827 21.48208034 -5.29413507 18.53030676 -4.59375 15.578125 C-4.14640699 13.70819601 -3.69851046 11.83839932 -3.25 9.96875 C-3.03956055 9.08344604 -2.82912109 8.19814209 -2.61230469 7.28601074 C-1.1155429 1.1155429 -1.1155429 1.1155429 0 0 Z " fill="#FA6316" transform="translate(202,33)"/>
<path d="M0 0 C2 1 2 1 2.69607544 2.81517029 C2.90481293 3.60633743 3.11355042 4.39750458 3.32861328 5.21264648 C3.56871124 6.10704941 3.8088092 7.00145233 4.05618286 7.92295837 C4.30834564 8.89584305 4.56050842 9.86872772 4.8203125 10.87109375 C5.08383514 11.86375748 5.34735779 12.8564212 5.61886597 13.87916565 C6.17562466 15.98233283 6.72850299 18.08653043 7.27783203 20.19165039 C8.12103402 23.42230468 8.97543764 26.6498266 9.83203125 29.87695312 C10.37044969 31.91649307 10.90823152 33.9562012 11.4453125 35.99609375 C11.70152374 36.96695419 11.95773499 37.93781464 12.22171021 38.93809509 C12.45550385 39.83565018 12.68929749 40.73320526 12.93017578 41.65795898 C13.13732208 42.44992172 13.34446838 43.24188446 13.55789185 44.05784607 C14 46 14 46 14 48 C5.75 48 -2.5 48 -11 48 C-9.875 37.875 -9.875 37.875 -8.96850586 34.39819336 C-8.76837387 33.61806381 -8.56824188 32.83793427 -8.36204529 32.03416443 C-8.04168053 30.82422569 -8.04168053 30.82422569 -7.71484375 29.58984375 C-7.3840255 28.31047691 -7.3840255 28.31047691 -7.04652405 27.00526428 C-6.34932651 24.3144594 -5.64357473 21.6259875 -4.9375 18.9375 C-4.45971613 17.09975756 -3.98249727 15.26186812 -3.50585938 13.42382812 C-2.34375927 8.94749427 -1.17398854 4.47322995 0 0 Z " fill="#FA6317" transform="translate(473,31)"/>
<path d="M0 0 C6.6 0 13.2 0 20 0 C20 0.33 20 0.66 20 1 C13.4 1 6.8 1 0 1 C0 0.67 0 0.34 0 0 Z " fill="#F5535B" transform="translate(73,189)"/>
<path d="M0 0 C2.97 0 5.94 0 9 0 C9 0.33 9 0.66 9 1 C6.03 1 3.06 1 0 1 C0 0.67 0 0.34 0 0 Z " fill="#F8525A" transform="translate(663,187)"/>
<path d="M0 0 C0.99 0.99 1.98 1.98 3 3 C2.01 2.67 1.02 2.34 0 2 C0 1.34 0 0.68 0 0 Z " fill="#FB896B" transform="translate(14,27)"/>
<path d="M0 0 C0.99 0.495 0.99 0.495 2 1 C1.67 1.66 1.34 2.32 1 3 C0.67 2.01 0.34 1.02 0 0 Z " fill="#FE7E5E" transform="translate(77,22)"/>
<path d="M0 0 C3 1 3 1 3 1 Z " fill="#FB565E" transform="translate(504,221)"/>
<path d="M0 0 C3 1 3 1 3 1 Z " fill="#F16565" transform="translate(58,189)"/>
<path d="M0 0 C3 1 3 1 3 1 Z " fill="#F95158" transform="translate(700,187)"/>
<path d="M0 0 C2 1 2 1 2 1 Z " fill="#F95760" transform="translate(569,221)"/>
<path d="M0 0 C2 1 2 1 2 1 Z " fill="#FA565E" transform="translate(544,221)"/>
<path d="M0 0 C2 1 2 1 2 1 Z " fill="#FA5860" transform="translate(524,221)"/>
<path d="M0 0 C2 1 2 1 2 1 Z " fill="#F45E68" transform="translate(276,209)"/>
<path d="M0 0 C2 1 2 1 2 1 Z " fill="#F4585E" transform="translate(68,189)"/>
<path d="M0 0 C2 1 2 1 2 1 Z " fill="#F9525A" transform="translate(709,187)"/>
<path d="M0 0 C2 1 2 1 2 1 Z " fill="#F7535B" transform="translate(693,187)"/>
<path d="M0 0 C2 1 2 1 2 1 Z " fill="#F9525B" transform="translate(685,187)"/>
<path d="M0 0 C2 1 2 1 2 1 Z " fill="#F9525E" transform="translate(677,187)"/>
<path d="M0 0 C2 1 2 1 2 1 Z " fill="#F75057" transform="translate(200,187)"/>
<path d="M0 0 C2 1 2 1 2 1 Z " fill="#F75158" transform="translate(197,187)"/>
<path d="" fill="#F17179" transform="translate(0,0)"/>
<path d="" fill="#FE8364" transform="translate(0,0)"/>
<path d="" fill="#FD896B" transform="translate(0,0)"/>
<path d="" fill="#FC8767" transform="translate(0,0)"/>
<path d="" fill="#FC896B" transform="translate(0,0)"/>
<path d="" fill="#F8814C" transform="translate(0,0)"/>
<path d="M0 0 C2 1 2 1 2 1 Z " fill="#FC9774" transform="translate(758,0)"/>
<path d="" fill="#F26874" transform="translate(0,0)"/>
<path d="" fill="#F75E69" transform="translate(0,0)"/>
<path d="" fill="#F95A63" transform="translate(0,0)"/>
<path d="" fill="#F95C64" transform="translate(0,0)"/>
<path d="" fill="#FA5860" transform="translate(0,0)"/>
<path d="" fill="#F95962" transform="translate(0,0)"/>
<path d="" fill="#FB5A60" transform="translate(0,0)"/>
<path d="" fill="#FC585F" transform="translate(0,0)"/>
<path d="" fill="#FB5A5F" transform="translate(0,0)"/>
<path d="" fill="#FB5C61" transform="translate(0,0)"/>
<path d="" fill="#FB565F" transform="translate(0,0)"/>
<path d="" fill="#F9545C" transform="translate(0,0)"/>
<path d="" fill="#F75760" transform="translate(0,0)"/>
<path d="" fill="#F4636D" transform="translate(0,0)"/>
<path d="" fill="#F65966" transform="translate(0,0)"/>
<path d="" fill="#F65D68" transform="translate(0,0)"/>
<path d="" fill="#F75D6A" transform="translate(0,0)"/>
<path d="" fill="#F7626C" transform="translate(0,0)"/>
<path d="" fill="#F74D5B" transform="translate(0,0)"/>
<path d="" fill="#F74D59" transform="translate(0,0)"/>
<path d="" fill="#F6505A" transform="translate(0,0)"/>
<path d="" fill="#F75159" transform="translate(0,0)"/>
<path d="" fill="#F6595E" transform="translate(0,0)"/>
<path d="" fill="#F2595F" transform="translate(0,0)"/>
<path d="" fill="#F8535B" transform="translate(0,0)"/>
<path d="" fill="#F8545E" transform="translate(0,0)"/>
<path d="" fill="#FB535A" transform="translate(0,0)"/>
<path d="" fill="#FA555D" transform="translate(0,0)"/>
<path d="" fill="#F9525A" transform="translate(0,0)"/>
<path d="" fill="#FA505A" transform="translate(0,0)"/>
<path d="" fill="#F8545A" transform="translate(0,0)"/>
<path d="" fill="#F6565C" transform="translate(0,0)"/>
<path d="" fill="#F75158" transform="translate(0,0)"/>
<path d="" fill="#F75059" transform="translate(0,0)"/>
<path d="" fill="#FA535B" transform="translate(0,0)"/>
<path d="" fill="#FC4F5B" transform="translate(0,0)"/>
<path d="" fill="#F74E5A" transform="translate(0,0)"/>
<path d="" fill="#FC5058" transform="translate(0,0)"/>
<path d="" fill="#FA505A" transform="translate(0,0)"/>
<path d="" fill="#FB515C" transform="translate(0,0)"/>
<path d="" fill="#F85059" transform="translate(0,0)"/>
<path d="" fill="#F94E59" transform="translate(0,0)"/>
<path d="" fill="#F6646B" transform="translate(0,0)"/>
<path d="" fill="#F9616A" transform="translate(0,0)"/>
<path d="" fill="#FA5962" transform="translate(0,0)"/>
<path d="" fill="#F95F66" transform="translate(0,0)"/>
<path d="" fill="#F95A62" transform="translate(0,0)"/>
<path d="" fill="#F38086" transform="translate(0,0)"/>
<path d="" fill="#F95F67" transform="translate(0,0)"/>
<path d="" fill="#F28286" transform="translate(0,0)"/>
<path d="" fill="#F87D7D" transform="translate(0,0)"/>
<path d="" fill="#F77E7A" transform="translate(0,0)"/>
<path d="" fill="#FA8968" transform="translate(0,0)"/>
<path d="" fill="#FD8767" transform="translate(0,0)"/>
<path d="" fill="#FD8968" transform="translate(0,0)"/>
<path d="" fill="#F86D29" transform="translate(0,0)"/>
<path d="" fill="#F86E2A" transform="translate(0,0)"/>
<path d="" fill="#FD835E" transform="translate(0,0)"/>
<path d="" fill="#FE835F" transform="translate(0,0)"/>
<path d="" fill="#F86D26" transform="translate(0,0)"/>
<path d="" fill="#FA8E70" transform="translate(0,0)"/>
<path d="" fill="#F69370" transform="translate(0,0)"/>
<path d="" fill="#F78D6E" transform="translate(0,0)"/>
<path d="" fill="#F8906E" transform="translate(0,0)"/>
<path d="" fill="#FE8761" transform="translate(0,0)"/>
<path d="" fill="#F49376" transform="translate(0,0)"/>
<path d="" fill="#F76C26" transform="translate(0,0)"/>
<path d="" fill="#FB8761" transform="translate(0,0)"/>
<path d="" fill="#F79779" transform="translate(0,0)"/>
<path d="" fill="#F49D81" transform="translate(0,0)"/>
<path d="" fill="#F77330" transform="translate(0,0)"/>
<path d="" fill="#F99877" transform="translate(0,0)"/>
<path d="" fill="#FB9A7A" transform="translate(0,0)"/>
<path d="" fill="#FB9673" transform="translate(0,0)"/>
<path d="" fill="#FD936F" transform="translate(0,0)"/>
<path d="" fill="#FE9373" transform="translate(0,0)"/>
<path d="" fill="#FB9A77" transform="translate(0,0)"/>
</svg>
